<?xml version="1.0" standalone="no"?>
<!DOCTYPE svg PUBLIC "-//W3C//DTD SVG 20010904//EN"
 "http://www.w3.org/TR/2001/REC-SVG-20010904/DTD/svg10.dtd">
<svg version="1.0" xmlns="http://www.w3.org/2000/svg"
 width="300.000000pt" height="185.000000pt" viewBox="0 0 300.000000 185.000000"
 preserveAspectRatio="xMidYMid meet">

<g transform="translate(0.000000,185.000000) scale(0.100000,-0.100000)"
fill="#000000" stroke="none">
<path d="M1323 1513 c15 -2 37 -2 50 0 12 2 0 4 -28 4 -27 0 -38 -2 -22 -4z"/>
<path d="M1533 1513 c15 -2 39 -2 55 0 15 2 2 4 -28 4 -30 0 -43 -2 -27 -4z"/>
<path d="M1213 1503 c9 -2 23 -2 30 0 6 3 -1 5 -18 5 -16 0 -22 -2 -12 -5z"/>
<path d="M1673 1503 c9 -2 23 -2 30 0 6 3 -1 5 -18 5 -16 0 -22 -2 -12 -5z"/>
<path d="M1148 1493 c6 -2 18 -2 25 0 6 3 1 5 -13 5 -14 0 -19 -2 -12 -5z"/>
<path d="M1738 1493 c6 -2 18 -2 25 0 6 3 1 5 -13 5 -14 0 -19 -2 -12 -5z"/>
<path d="M1098 1483 c7 -3 16 -2 19 1 4 3 -2 6 -13 5 -11 0 -14 -3 -6 -6z"/>
<path d="M1798 1483 c7 -3 16 -2 19 1 4 3 -2 6 -13 5 -11 0 -14 -3 -6 -6z"/>
<path d="M1058 1473 c7 -3 16 -2 19 1 4 3 -2 6 -13 5 -11 0 -14 -3 -6 -6z"/>
<path d="M1025 1460 c3 -5 8 -10 11 -10 2 0 4 5 4 10 0 6 -5 10 -11 10 -5 0
-7 -4 -4 -10z"/>
<path d="M926 1428 c-18 -27 -27 -239 -11 -244 9 -4 65 133 80 198 14 57 -39
92 -69 46z"/>
<path d="M1042 1398 l-2 -38 123 2 122 2 -117 3 -117 4 -4 32 c-4 31 -4 31 -5
-5z"/>
<path d="M2040 1410 c8 -5 20 -10 25 -10 6 0 3 5 -5 10 -8 5 -19 10 -25 10 -5
0 -3 -5 5 -10z"/>
<path d="M853 1355 c0 -22 2 -30 4 -17 2 12 2 30 0 40 -3 9 -5 -1 -4 -23z"/>
<path d="M765 1370 c-3 -6 1 -7 9 -4 18 7 21 14 7 14 -6 0 -13 -4 -16 -10z"/>
<path d="M2121 1376 c2 -2 15 -9 29 -15 24 -11 24 -11 6 3 -16 13 -49 24 -35
12z"/>
<path d="M1533 1363 c37 -2 96 -2 130 0 34 2 4 3 -68 3 -71 0 -99 -1 -62 -3z"/>
<path d="M1290 1356 c0 -2 7 -7 16 -10 8 -3 12 -2 9 4 -6 10 -25 14 -25 6z"/>
<path d="M1439 1343 c-13 -16 -12 -17 4 -4 9 7 17 15 17 17 0 8 -8 3 -21 -13z"/>
<path d="M1746 1338 c10 -14 21 -24 23 -22 3 3 -6 15 -18 27 l-24 22 19 -27z"/>
<path d="M720 1341 c0 -8 71 -33 77 -27 2 1 -15 10 -37 19 -22 8 -40 12 -40 8z"/>
<path d="M1332 1280 c0 -19 2 -27 5 -17 2 9 2 25 0 35 -3 9 -5 1 -5 -18z"/>
<path d="M980 1280 c0 -14 7 -20 24 -20 13 0 33 -8 44 -17 13 -11 76 -157 157
-360 103 -258 141 -343 154 -343 12 0 45 79 136 321 66 177 128 335 138 351
10 17 31 35 47 41 18 7 30 19 30 29 0 16 -11 18 -110 18 -98 0 -110 -2 -110
-17 0 -10 15 -25 33 -33 26 -12 32 -20 30 -44 -3 -38 -165 -469 -173 -459 -18
22 -181 457 -178 476 2 15 13 25 36 32 21 6 32 15 32 27 0 16 -12 18 -145 18
-138 0 -145 -1 -145 -20z"/>
<path d="M2260 1296 c0 -2 8 -10 18 -17 15 -13 16 -12 3 4 -13 16 -21 21 -21
13z"/>
<path d="M270 1266 c0 -8 15 -17 34 -20 62 -12 61 -9 61 -343 l0 -305 -24 -19
c-13 -10 -34 -19 -47 -19 -17 0 -24 -6 -24 -19 0 -17 11 -18 198 -16 145 2
213 7 253 18 166 49 256 191 247 391 -5 107 -36 187 -96 249 -79 82 -139 97
-399 97 -167 0 -203 -2 -203 -14z m410 -62 c50 -21 105 -79 132 -138 20 -43
23 -67 23 -161 0 -94 -3 -117 -23 -160 -54 -118 -157 -176 -282 -159 l-50 7 2
311 3 311 35 7 c45 8 115 0 160 -18z"/>
<path d="M558 1153 c12 -2 30 -2 40 0 9 3 -1 5 -23 4 -22 0 -30 -2 -17 -4z"/>
<path d="M680 1127 c0 -2 15 -16 33 -33 l32 -29 -29 33 c-28 30 -36 37 -36 29z"/>
<path d="M761 984 c0 -11 3 -14 6 -6 3 7 2 16 -1 19 -3 4 -6 -2 -5 -13z"/>
<path d="M773 905 c0 -27 2 -38 4 -22 2 15 2 37 0 50 -2 12 -4 0 -4 -28z"/>
<path d="M761 824 c0 -11 3 -14 6 -6 3 7 2 16 -1 19 -3 4 -6 -2 -5 -13z"/>
<path d="M746 775 c-9 -26 -7 -32 5 -12 6 10 9 21 6 23 -2 3 -7 -2 -11 -11z"/>
<path d="M608 653 c6 -2 18 -2 25 0 6 3 1 5 -13 5 -14 0 -19 -2 -12 -5z"/>
<path d="M2340 1228 c41 -45 50 -53 50 -45 0 2 -21 23 -47 47 l-48 45 45 -47z"/>
<path d="M1420 1243 c0 -5 10 -18 23 -29 l22 -19 -20 25 c-11 14 -21 27 -22
29 -2 2 -3 0 -3 -6z"/>
<path d="M1756 1233 c-6 -14 -5 -15 5 -6 7 7 10 15 7 18 -3 3 -9 -2 -12 -12z"/>
<path d="M1309 1213 c-13 -16 -12 -17 4 -4 16 13 21 21 13 21 -2 0 -10 -8 -17
-17z"/>
<path d="M971 1165 c0 -11 9 -36 20 -55 20 -35 19 -28 -7 40 -8 22 -13 27 -13
15z"/>
<path d="M2410 1140 c12 -16 24 -30 26 -30 3 0 -4 14 -16 30 -12 17 -24 30
-26 30 -3 0 4 -13 16 -30z"/>
<path d="M1446 1105 c-9 -26 -7 -32 5 -12 6 10 9 21 6 23 -2 3 -7 -2 -11 -11z"/>
<path d="M1650 1108 c0 -5 98 -7 218 -6 217 2 192 6 -76 10 -78 2 -142 0 -142
-4z"/>
<path d="M1300 1105 c0 -5 5 -17 10 -25 5 -8 10 -10 10 -5 0 6 -5 17 -10 25
-5 8 -10 11 -10 5z"/>
<path d="M2163 1103 c31 -2 83 -2 115 0 31 2 5 3 -58 3 -63 0 -89 -1 -57 -3z"/>
<path d="M1570 1025 c0 -8 11 -17 25 -21 l25 -6 0 -204 0 -204 -25 -6 c-14 -3
-25 -12 -25 -20 0 -11 20 -14 90 -14 70 0 90 3 90 14 0 8 -11 17 -24 20 -32 8
-36 27 -36 211 0 184 4 203 36 211 13 3 24 12 24 20 0 11 -20 14 -90 14 -73 0
-90 -3 -90 -15z"/>
<path d="M1760 1026 c0 -8 11 -17 24 -20 32 -8 36 -28 36 -202 0 -185 -5 -212
-36 -220 -13 -3 -24 -13 -24 -20 0 -12 27 -14 157 -12 l157 3 18 60 c10 33 18
63 18 68 0 16 -29 6 -35 -12 -3 -11 -15 -31 -26 -45 -18 -24 -27 -26 -90 -26
l-69 0 0 90 0 91 57 -3 c55 -3 57 -4 65 -35 16 -61 28 -35 28 58 0 67 -3 90
-12 87 -7 -3 -15 -15 -18 -29 -5 -21 -12 -24 -63 -27 l-57 -3 0 81 0 81 72 -3
c72 -3 72 -3 82 -35 5 -18 15 -33 22 -33 15 0 18 37 8 89 l-6 31 -154 0 c-125
0 -154 -3 -154 -14z"/>
<path d="M2120 1025 c0 -8 11 -17 25 -21 l25 -6 0 -204 0 -204 -25 -6 c-14 -3
-25 -12 -25 -20 0 -11 20 -14 90 -14 73 0 90 3 90 15 0 8 -6 15 -14 15 -34 0
-46 30 -46 111 0 69 2 80 16 77 9 -2 52 -59 94 -128 97 -155 126 -180 216
-180 56 0 64 2 64 19 0 15 -10 19 -56 23 -37 3 -61 11 -74 24 -32 32 -154 258
-142 262 55 18 89 91 72 153 -21 75 -74 98 -222 99 -71 0 -88 -3 -88 -15z
m215 -59 c18 -27 22 -68 11 -104 -8 -24 -53 -52 -86 -52 -19 0 -20 6 -20 90
l0 90 40 0 c31 0 43 -5 55 -24z"/>
<path d="M2510 1025 c0 -8 6 -15 14 -15 8 0 22 -7 30 -16 13 -13 16 -45 16
-199 0 -154 -3 -186 -16 -199 -8 -9 -22 -16 -30 -16 -8 0 -14 -7 -14 -15 0
-12 17 -15 90 -15 70 0 90 3 90 14 0 8 -11 17 -25 20 l-25 6 0 204 0 204 25 6
c14 4 25 13 25 21 0 12 -17 15 -90 15 -73 0 -90 -3 -90 -15z"/>
<path d="M1021 1014 c0 -11 3 -14 6 -6 3 7 2 16 -1 19 -3 4 -6 -2 -5 -13z"/>
<path d="M1080 1005 c0 -5 5 -17 10 -25 5 -8 10 -10 10 -5 0 6 -5 17 -10 25
-5 8 -10 11 -10 5z"/>
<path d="M1350 975 c0 -5 5 -17 10 -25 5 -8 10 -10 10 -5 0 6 -5 17 -10 25 -5
8 -10 11 -10 5z"/>
<path d="M1033 910 c0 -36 2 -50 4 -32 2 17 2 47 0 65 -2 17 -4 3 -4 -33z"/>
<path d="M1140 855 c0 -5 5 -17 10 -25 5 -8 10 -10 10 -5 0 6 -5 17 -10 25 -5
8 -10 11 -10 5z"/>
<path d="M1551 830 c-1 -8 -2 -51 -1 -95 1 -74 -1 -82 -24 -104 -14 -14 -26
-32 -25 -40 0 -11 3 -9 9 5 5 12 18 29 30 37 19 13 21 22 17 113 -1 55 -4 92
-6 84z"/>
<path d="M1021 804 c0 -11 3 -14 6 -6 3 7 2 16 -1 19 -3 4 -6 -2 -5 -13z"/>
<path d="M2455 789 c-4 -6 -5 -12 -2 -15 2 -3 7 2 10 11 7 17 1 20 -8 4z"/>
<path d="M1200 705 c0 -5 5 -17 10 -25 5 -8 10 -10 10 -5 0 6 -5 17 -10 25 -5
8 -10 11 -10 5z"/>
<path d="M1486 675 c-9 -26 -7 -32 5 -12 6 10 9 21 6 23 -2 3 -7 -2 -11 -11z"/>
<path d="M899 573 l-34 -38 38 34 c34 33 42 41 34 41 -2 0 -19 -17 -38 -37z"/>
<path d="M800 505 c-14 -8 -20 -14 -14 -15 5 0 19 7 30 15 24 18 16 19 -16 0z"/>
<path d="M1510 516 c0 -2 8 -10 18 -17 15 -13 16 -12 3 4 -13 16 -21 21 -21
13z"/>
<path d="M1297 489 c12 -12 24 -21 27 -18 2 2 -8 13 -22 23 l-27 19 22 -24z"/>
<path d="M1401 490 c-13 -11 -19 -20 -14 -20 6 0 18 9 28 20 23 25 17 25 -14
0z"/>
<path d="M1683 483 c75 -2 199 -2 275 0 75 1 13 3 -138 3 -151 0 -213 -2 -137
-3z"/>
<path d="M2100 486 c0 -8 49 -13 60 -6 6 4 -5 7 -25 8 -19 1 -35 0 -35 -2z"/>
<path d="M368 453 c7 -3 16 -2 19 1 4 3 -2 6 -13 5 -11 0 -14 -3 -6 -6z"/>
<path d="M840 435 c14 -8 30 -14 35 -14 6 0 -1 6 -15 14 -14 8 -29 14 -35 14
-5 0 1 -6 15 -14z"/>
<path d="M2050 435 c-14 -8 -20 -14 -15 -14 6 0 21 6 35 14 14 8 21 14 15 14
-5 0 -21 -6 -35 -14z"/>
<path d="M2437 419 c7 -7 15 -10 18 -7 3 3 -2 9 -12 12 -14 6 -15 5 -6 -5z"/>
<path d="M995 380 c11 -5 27 -9 35 -9 9 0 8 4 -5 9 -11 5 -27 9 -35 9 -9 0 -8
-4 5 -9z"/>
<path d="M1878 373 c7 -3 16 -2 19 1 4 3 -2 6 -13 5 -11 0 -14 -3 -6 -6z"/>
<path d="M1098 353 c7 -3 16 -2 19 1 4 3 -2 6 -13 5 -11 0 -14 -3 -6 -6z"/>
<path d="M1158 343 c6 -2 18 -2 25 0 6 3 1 5 -13 5 -14 0 -19 -2 -12 -5z"/>
<path d="M1738 343 c7 -3 16 -2 19 1 4 3 -2 6 -13 5 -11 0 -14 -3 -6 -6z"/>
<path d="M1228 333 c6 -2 18 -2 25 0 6 3 1 5 -13 5 -14 0 -19 -2 -12 -5z"/>
<path d="M1658 333 c6 -2 18 -2 25 0 6 3 1 5 -13 5 -14 0 -19 -2 -12 -5z"/>
<path d="M1328 323 c18 -2 45 -2 60 0 15 2 0 4 -33 4 -33 0 -45 -2 -27 -4z"/>
<path d="M1428 323 c7 -3 16 -2 19 1 4 3 -2 6 -13 5 -11 0 -14 -3 -6 -6z"/>
<path d="M1507 323 c18 -2 50 -2 70 0 21 2 7 4 -32 4 -38 0 -55 -2 -38 -4z"/>
</g>
</svg>
