<?xml version="1.0" standalone="no"?>
<!DOCTYPE svg PUBLIC "-//W3C//DTD SVG 20010904//EN"
 "http://www.w3.org/TR/2001/REC-SVG-20010904/DTD/svg10.dtd">
<svg version="1.0" xmlns="http://www.w3.org/2000/svg"
 width="300.000000pt" height="185.000000pt" viewBox="0 0 300.000000 185.000000"
 preserveAspectRatio="xMidYMid meet">
<metadata>
Created by potrace 1.16, written by Peter Selinger 2001-2019
</metadata>
<g transform="translate(0.000000,185.000000) scale(0.100000,-0.100000)"
fill="#000000" stroke="none">
<path d="M926 1428 c-9 -14 -18 -63 -22 -125 -8 -123 -9 -117 9 -121 15 -3 87
180 87 222 0 47 -49 62 -74 24z"/>
<path d="M980 1280 c0 -13 7 -20 19 -20 47 0 67 -36 176 -307 163 -408 165
-413 183 -413 13 0 39 58 106 238 87 230 106 274 106 240 0 -10 10 -18 23 -20
22 -3 22 -4 25 -204 l2 -202 -25 -6 c-14 -4 -25 -13 -25 -21 0 -12 17 -15 90
-15 73 0 90 3 90 15 0 8 -11 17 -25 21 l-25 6 0 204 0 204 25 0 c18 0 25 5 25
20 0 19 -7 20 -90 20 -53 0 -90 4 -90 10 0 18 53 145 72 172 11 16 30 31 44
34 15 4 24 13 24 25 0 18 -7 19 -112 17 -121 -3 -146 -16 -84 -42 55 -23 54
-26 -41 -281 -90 -241 -89 -238 -101 -205 -6 14 -46 116 -91 228 -45 111 -81
211 -81 222 0 21 27 40 59 40 14 0 21 6 21 20 0 19 -7 20 -150 20 -143 0 -150
-1 -150 -20z"/>
<path d="M270 1267 c0 -24 4 -27 33 -27 18 0 38 -5 45 -12 18 -18 17 -631 0
-646 -7 -5 -28 -13 -45 -17 -24 -5 -33 -12 -33 -27 0 -20 4 -20 208 -16 231 6
272 14 355 74 188 136 188 486 0 624 -67 49 -128 61 -355 67 l-208 6 0 -26z
m417 -68 c206 -100 200 -509 -9 -594 -42 -17 -166 -23 -188 -10 -16 10 -13
612 3 618 6 3 43 6 81 6 51 1 81 -4 113 -20z"/>
<path d="M1760 1020 c0 -15 7 -20 25 -20 l25 0 0 -204 0 -204 -25 -6 c-14 -4
-25 -13 -25 -21 0 -13 25 -15 158 -15 l158 0 17 64 c21 78 20 76 3 76 -8 0
-17 -9 -21 -19 -3 -11 -15 -31 -26 -45 -18 -24 -27 -26 -90 -26 l-69 0 0 90 0
91 57 -3 c55 -3 58 -4 63 -32 3 -16 11 -31 18 -34 9 -3 12 20 12 93 0 73 -3
96 -12 93 -7 -3 -15 -18 -18 -34 -5 -28 -8 -29 -63 -32 l-57 -3 0 81 0 81 68
-3 c67 -3 67 -3 85 -40 27 -55 38 -47 35 25 l-3 62 -157 3 c-153 2 -158 2
-158 -18z"/>
<path d="M2120 1021 c0 -13 8 -21 23 -23 22 -3 22 -4 25 -201 l2 -197 -25 -10
c-14 -5 -25 -16 -25 -25 0 -12 16 -15 91 -15 81 0 90 2 87 18 -2 9 -13 18 -26
20 -21 3 -22 8 -22 93 0 49 4 89 9 89 5 0 43 -55 84 -123 104 -168 126 -187
226 -187 54 0 61 2 61 20 0 16 -7 20 -35 20 -67 0 -100 22 -140 97 -21 37 -53
93 -71 123 l-33 55 31 24 c32 25 58 75 58 112 0 11 -8 37 -17 56 -25 54 -75
73 -200 73 -95 0 -103 -1 -103 -19z m210 -53 c29 -31 27 -98 -2 -126 -13 -11
-35 -24 -50 -27 l-28 -7 0 91 0 91 30 0 c17 0 38 -9 50 -22z"/>
<path d="M2510 1020 c0 -14 7 -20 24 -20 31 0 36 -26 36 -205 0 -173 -5 -203
-34 -207 -11 -2 -22 -11 -24 -21 -3 -15 6 -17 87 -17 75 0 91 3 91 15 0 9 -11
20 -25 25 l-25 10 2 197 c3 197 3 198 26 201 14 2 22 10 22 23 0 17 -8 19 -90
19 -83 0 -90 -1 -90 -20z"/>
</g>
</svg>
